<?xml version="1.0" encoding="UTF-8" standalone="yes"?>
<svg version="1.2" width="96" height="96" viewBox="0 0 96 96" baseProfile="tiny-ps" xmlns="http://www.w3.org/2000/svg">
  <title>Relia-Tech</title>
  <defs id="defs2"/>
  <path id="path1" d="m 70.653203,51.148173 c -0.02265,0.01991 -0.0441,0.03834 -0.06695,0.05542 -0.07296,0.05476 -0.145998,0.09065 -0.182469,0.127113 -0.0359,0.03632 -0.0354,0.0735 -0.07258,0.09159 -0.03602,0.01848 -0.109639,0.01824 -0.146064,0.03616 -0.03596,0.01848 -0.03536,0.05437 -0.145262,0.09079 -0.10935,0.03635 -0.328505,0.07341 -0.547141,0.127918 -0.218695,0.05472 -0.436775,0.126982 -0.600833,0.163391 -0.16401,0.03632 -0.273533,0.03707 -0.401113,0.07361 -0.127457,0.03631 -0.273479,0.108816 -0.419235,0.145264 -0.145756,0.03631 -0.291635,0.03706 -0.437345,0.07361 -0.145831,0.03631 -0.291549,0.108793 -0.491925,0.145234 -0.200452,0.03631 -0.45549,0.03706 -0.71056,0.07365 -0.25509,0.03631 -0.51039,0.108684 -0.874835,0.18158 -0.36444,0.07297 -0.837878,0.145845 -1.256878,0.200518 -0.419065,0.05473 -0.78344,0.09148 -0.965601,0.127948 -0.182245,0.0363 -0.182315,0.07263 -0.218686,0.09072 -0.03606,0.01841 -0.109525,0.01836 -0.182466,0.03615 -0.073,0.01841 -0.145691,0.05537 -0.254969,0.07359 -0.109322,0.01836 -0.254679,0.01836 -0.345728,0.03615 -0.09117,0.0185 -0.128427,0.05438 -0.237733,0.0908 -0.109279,0.0363 -0.290757,0.07354 -0.454777,0.09162 -0.163958,0.01841 -0.310066,0.01816 -0.838435,0.127061 -0.528495,0.109333 -1.43989,0.32807 -1.968359,0.437396 -0.528368,0.109349 -0.673915,0.109462 -1.001837,0.200574 -0.328001,0.09107 -0.838093,0.273602 -1.202477,0.382906 -0.364424,0.109334 -0.582852,0.145063 -0.765042,0.199731 -0.182232,0.05472 -0.328009,0.127821 -0.455591,0.164259 -0.127492,0.03628 -0.2372,0.03592 -0.36475,0.07264 -0.127527,0.03628 -0.27354,0.109644 -0.401125,0.146094 -0.127503,0.03628 -0.236438,0.03593 -0.34576,0.07269 -0.109307,0.03636 -0.21887,0.109504 -0.401089,0.182378 -0.182208,0.07299 -0.437515,0.145818 -0.63797,0.21872 -0.200396,0.07299 -0.346161,0.145923 -0.473712,0.182354 -0.12753,0.03636 -0.23632,0.03592 -0.382112,0.07272 -0.145753,0.03627 -0.327857,0.109655 -0.491852,0.146101 -0.164003,0.03627 -0.309883,0.03573 -0.892975,0.127045 -0.534243,0.0835 -1.43561,0.243817 -2.367735,0.410171 0,0 0.01001,0.105862 -0.02898,0.118045 -1.008542,0.318527 -2.381793,0.544393 -3.594404,0.563545 -1.1873,0.01889 -2.373156,-0.195314 -3.534986,-0.440561 -1.111718,-0.234753 -3.264357,-0.981743 -3.264357,-0.981743 l -10.948818,-5.563984 -1.337024,-0.717128 -0.179251,2.382791 v 5.070565 c 0,0 0.779052,6.003637 1.690174,8.873542 0.51502,1.622044 1.222195,3.197692 2.112764,4.647993 0.943834,1.537072 2.091037,2.964053 3.38037,4.225492 1.077313,1.053975 2.286585,1.992675 3.591649,2.746516 1.585526,0.915884 3.292338,1.676175 5.070577,2.112736 3.157964,0.775406 6.483843,1.177328 9.71861,0.845087 2.92563,-0.30051 5.867929,-1.129099 8.451016,-2.535237 2.193786,-1.194292 4.101589,-2.943418 5.704359,-4.859307 1.255525,-1.500794 2.220193,-3.258185 2.957817,-5.070594 1.094617,-2.689416 2.112742,-8.450935 2.112742,-8.450935 0,0 0.08755,-3.375555 0.101551,-8.24217 z" stroke-width="0.422544"/>
  <path id="path4" d="m 53.125266,13.842378 -4.212284,0.524902 0.259563,3.921543 c 0,0 0.113081,2.364349 0.17789,3.726034 0.01854,0.386406 -0.686237,-0.601276 -1.073057,-0.598774 -0.212633,0.0017 -0.679208,0.06076 -0.944037,0.267954 -0.477142,0.373316 -0.839193,0.742356 -1.180139,1.243117 -0.326841,0.480023 -0.351595,1.113809 -0.422544,1.690183 -0.206512,1.677533 -0.346115,3.416189 0,5.070576 0.08461,0.404688 0.277026,0.78637 0.497215,1.136306 0.229949,0.365459 0.508579,0.711159 0.845097,0.981699 0.283608,0.228004 0.604443,0.445365 0.961064,0.517859 0.353333,0.0718 1.077001,-0.100595 1.077001,-0.100595 l -0.422552,22.817576 0.07008,0.836003 c 0.932135,-0.16633 1.833488,-0.326696 2.36775,-0.410152 0.583075,-0.09109 0.599244,-0.06291 0.892926,-0.127096 0.167119,-0.0364 0.346109,-0.109644 0.491899,-0.146089 0.145797,-0.03634 0.254565,-0.03592 0.382106,-0.07265 0.127562,-0.03628 0.273288,-0.109502 0.473712,-0.182406 0.200413,-0.07299 0.455774,-0.145772 0.637951,-0.218655 0.182218,-0.07303 0.291769,-0.145999 0.401093,-0.182423 0.10935,-0.03629 0.218234,-0.03594 0.345772,-0.07268 0.127572,-0.03629 0.273567,-0.109617 0.401133,-0.146068 0.127537,-0.03636 0.237211,-0.03594 0.364737,-0.07268 0.127572,-0.03629 0.273357,-0.109585 0.455585,-0.164251 0.18217,-0.05468 0.400638,-0.09036 0.765063,-0.199706 0.364415,-0.109356 0.874413,-0.291828 1.202427,-0.382948 0.328013,-0.09109 0.473441,-0.09122 1.001923,-0.200556 0.528369,-0.109286 1.439861,-0.328072 1.968264,-0.437371 0.528434,-0.109328 0.674582,-0.108871 0.838504,-0.127115 0.164013,-0.01844 0.345427,-0.05532 0.454729,-0.0916 0.109363,-0.03631 0.146648,-0.07263 0.237685,-0.09078 0.0911,-0.01844 0.23647,-0.01835 0.345756,-0.03615 0.109342,-0.01837 0.182151,-0.05537 0.255087,-0.0736 0.07303,-0.01837 0.145891,-0.01827 0.182337,-0.03615 0.03611,-0.01844 0.03618,-0.05437 0.218735,-0.09079 0.182137,-0.03636 0.54648,-0.07341 0.965571,-0.127916 0.419087,-0.05469 0.892549,-0.127644 1.256922,-0.200548 0.364434,-0.073 0.619711,-0.145112 0.874783,-0.181558 0.25515,-0.03635 0.510178,-0.03705 0.710647,-0.07359 0.200359,-0.03632 0.346091,-0.108821 0.491811,-0.145257 0.145781,-0.03632 0.291609,-0.03705 0.437405,-0.07362 0.145829,-0.03632 0.291701,-0.10881 0.419287,-0.14522 0.127545,-0.03632 0.237019,-0.03705 0.401069,-0.07363 0.164006,-0.03632 0.38216,-0.108768 0.600778,-0.163427 0.218693,-0.0547 0.437869,-0.09143 0.547189,-0.127886 0.109289,-0.03636 0.1088,-0.07264 0.145208,-0.09079 0.03602,-0.01852 0.109658,-0.01852 0.146143,-0.03617 0.03588,-0.01852 0.03537,-0.05532 0.07266,-0.09162 0.03588,-0.03633 0.10943,-0.07248 0.182336,-0.127094 0.02269,-0.01695 0.04401,-0.03531 0.06695,-0.05541 0.02408,-8.284068 -0.16618,-20.889416 -1.369111,-28.519047 -0.159731,-1.01282 -0.274256,-2.105956 -0.845148,-2.957766 -0.949053,-1.416113 -2.46155,-2.465009 -4.014241,-3.169012 C 61.011617,14.358203 53.12527,13.842613 53.12527,13.842613 Z" stroke-width="0.422544"/>
  <path fill="#fe7200" fill-rule="evenodd" d="m 47.522802,56.22121 c -1.663324,0.361002 -4.648031,0 -4.648031,0 L 38.438035,55.062878 34.00127,53.029955 25.997418,48.82661 26.606702,33.192379 29.141972,31.92473 c 0,0 1.148363,-8.241568 2.12751,-13.019166 0.38824,-1.894401 2.969035,-2.761031 4.859288,-3.169112 1.810855,-0.390928 3.815265,0.05983 5.493117,0.845099 1.446055,0.676907 3.583234,1.572491 3.591655,3.169105 0.02392,4.496079 -0.85985,13.864266 -0.85985,13.864266 l 3.802913,1.690188 c 0,0 -0.118451,13.456369 0,20.282281 0.0061,0.298795 -0.34182,0.57045 -0.633803,0.633819 z M 40.128215,33.614922 c 0,0 1.21666,-7.436469 1.704941,-11.328969 0.149281,-1.189967 -1.236035,-2.241957 -2.323996,-2.746555 -1.022209,-0.474112 -2.39986,-0.555195 -3.38039,0 -1.072022,0.606956 -1.713465,1.951595 -1.901467,3.169103 -0.523087,3.387591 -1.282395,9.638781 -1.282395,9.638781 l 2.651996,0.400408 z" id="path2" stroke-width="0.422544"/>
</svg>